<svg width="120" height="80" viewBox="30 50 130 130" xmlns="http://www.w3.org/2000/svg">
    <defs>
        <filter id="shadow" x="-50%" y="-50%" width="200%" height="200%">
            <feDropShadow dx="2" dy="2" stdDeviation="2" flood-color="#333" flood-opacity="0.5"/>
        </filter>
    </defs>

    <g transform="translate(100, 150) rotate(-45)">
        <rect x="-5" y="-70" width="10" height="100" fill="#f0e68c" filter="url(#shadow)" stroke="white" stroke-width="2"/>
        <polygon points="-5 -70, 5 -70, 0 -80" fill="#a0522d" stroke="white" stroke-width="2"/>
        <rect x="-5" y="20" width="10" height="10" fill="#ff4500" stroke="white" stroke-width="2"/>
    </g>

    <circle cx="100" cy="100" r="30" fill="#333" filter="url(#shadow)" stroke="white" stroke-width="2"/>
    <circle cx="100" cy="80" r="15" fill="#333" stroke="white" stroke-width="2"/>

    <circle cx="93" cy="78" r="3" fill="#fff" stroke="white" stroke-width="1"/>
    <circle cx="107" cy="78" r="3" fill="#fff" stroke="white" stroke-width="1"/>
    <circle cx="93" cy="78" r="1.5" fill="#000" stroke="white" stroke-width="0.5"/>
    <circle cx="107" cy="78" r="1.5" fill="#000" stroke="white" stroke-width="0.5"/>

    <g transform="translate(100, 105) rotate(45)">
        <rect x="-5" y="-25" width="10" height="50" fill="#ffd700" stroke="white" stroke-width="0.5"/>
        <polygon points="-5 -25, 5 -25, 0 -32" fill="#a0522d" stroke="white" stroke-width="0.5"/>
        <rect x="-5" y="25" width="10" height="7" fill="#ff4500" stroke="white" stroke-width="0.5"/>
    </g>

    <line x1="85" y1="90" x2="70" y2="75" stroke="#333" stroke-width="3" stroke-linecap="round"/>
    <line x1="115" y1="90" x2="130" y2="75" stroke="#333" stroke-width="3" stroke-linecap="round"/>

    <line x1="70" y1="105" x2="40" y2="100" stroke="#333" stroke-width="3" stroke-linecap="round"/>
    <line x1="75" y1="115" x2="50" y2="130" stroke="#333" stroke-width="3" stroke-linecap="round"/>
    <line x1="85" y1="125" x2="70" y2="150" stroke="#333" stroke-width="3" stroke-linecap="round"/>

    <line x1="130" y1="105" x2="160" y2="100" stroke="#333" stroke-width="3" stroke-linecap="round"/>
    <line x1="125" y1="115" x2="150" y2="130" stroke="#333" stroke-width="3" stroke-linecap="round"/>
    <line x1="115" y1="125" x2="130" y2="150" stroke="#333" stroke-width="3" stroke-linecap="round"/>

</svg>